<svg width="20" height="20" viewBox="0 0 20 20" fill="none" xmlns="http://www.w3.org/2000/svg">
<path d="M19.0205 9.076L11.07 9.5593L17.0268 4.26714L17.1114 4.19464C17.1923 4.10379 17.2544 3.99776 17.294 3.88271C17.3336 3.76767 17.3499 3.6459 17.342 3.52449C17.3342 3.40308 17.3023 3.28444 17.2481 3.17547C17.194 3.0665 17.1188 2.96937 17.0268 2.88972C16.8434 2.72784 16.6037 2.64469 16.3595 2.65826C16.1152 2.67183 15.8862 2.78102 15.7219 2.96222L10.4417 8.93101L10.9129 0.980676C10.925 0.941311 10.925 0.899215 10.9129 0.85985C10.8969 0.616308 10.7848 0.389106 10.6012 0.228225C10.4177 0.0673449 10.1777 -0.0140357 9.9342 0.00198681C9.69065 0.0180093 9.46344 0.130124 9.30256 0.313664C9.14168 0.497204 9.06029 0.737134 9.07632 0.980676L9.54755 8.93101L4.26735 2.96222L4.19485 2.88972C4.01219 2.72629 3.77209 2.64212 3.52737 2.65571C3.28264 2.66931 3.05334 2.77956 2.88991 2.96222C2.72648 3.14487 2.6423 3.38497 2.65589 3.62969C2.66949 3.87441 2.77975 4.10371 2.96241 4.26714L8.93132 9.5593L0.980822 9.076H0.859994C0.739311 9.08368 0.621333 9.11511 0.512833 9.16851C0.404332 9.2219 0.307446 9.2962 0.227736 9.38713C0.148026 9.47806 0.0870614 9.58385 0.0483428 9.69841C0.00962418 9.81296 -0.0060861 9.93404 0.00211356 10.0547C0.00825411 10.1764 0.0385658 10.2957 0.0912819 10.4056C0.143998 10.5155 0.218064 10.6138 0.30916 10.6948C0.400257 10.7757 0.506562 10.8378 0.621878 10.8772C0.737194 10.9167 0.859213 10.9328 0.980822 10.9246L8.93132 10.4413L2.96241 15.7214L2.88991 15.806C2.72803 15.9894 2.64487 16.2291 2.65844 16.4733C2.67201 16.7175 2.78121 16.9466 2.96241 17.1109C3.05326 17.1918 3.15929 17.2539 3.27434 17.2935C3.38939 17.3331 3.51115 17.3494 3.63257 17.3415C3.75398 17.3337 3.87262 17.3018 3.9816 17.2476C4.09057 17.1935 4.1877 17.1183 4.26735 17.0263L9.54755 11.0696L9.07632 19.02V19.1287C9.09188 19.3734 9.20343 19.6021 9.38671 19.765C9.56999 19.9279 9.81017 20.0119 10.055 19.9986C10.1757 19.991 10.2937 19.9595 10.4022 19.9061C10.5107 19.8527 10.6076 19.7785 10.6873 19.6875C10.767 19.5966 10.828 19.4908 10.8667 19.3762C10.9054 19.2617 10.9211 19.1406 10.9129 19.02L10.4417 11.0696L15.7219 17.0263L15.8065 17.1109C15.9941 17.242 16.2235 17.2994 16.4508 17.2719C16.6781 17.2445 16.8873 17.1342 17.0384 16.9622C17.1895 16.7902 17.2718 16.5685 17.2697 16.3396C17.2675 16.1107 17.1811 15.8906 17.0268 15.7214L11.07 10.4413L19.0205 10.9246H19.1292C19.3728 10.9061 19.5996 10.7936 19.7619 10.611C19.9242 10.4285 20.0093 10.19 19.9992 9.94594C19.9931 9.82422 19.9627 9.70493 19.91 9.59504C19.8573 9.48515 19.7832 9.38685 19.6921 9.30588C19.601 9.22491 19.4947 9.16288 19.3794 9.12341C19.2641 9.08394 19.1421 9.06783 19.0205 9.076Z" fill="#F65D2C"/>
</svg>
