<svg width="48" height="48" viewBox="0 0 48 48" fill="none" xmlns="http://www.w3.org/2000/svg">
<g clip-path="url(#clip0_31_343)">
<rect width="48" height="48" rx="8" fill="white"/>
<path d="M8.50003 0H39.5001C44.2 0 48 3.8974 48 8.71796V39.282C48 44.1025 44.2 48 39.5 48H8.50003C3.79997 47.9999 0 44.1025 0 39.2819V8.71796C0 3.8974 3.79997 0 8.50003 0Z" fill="#F0F0F0"/>
<g clip-path="url(#clip1_31_343)">
<path d="M24.5 38C32.232 38 38.5 31.732 38.5 24C38.5 16.268 32.232 10 24.5 10C16.768 10 10.5 16.268 10.5 24C10.5 31.732 16.768 38 24.5 38Z" fill="#7D2AE7"/>
<path d="M24.5 38C32.232 38 38.5 31.732 38.5 24C38.5 16.268 32.232 10 24.5 10C16.768 10 10.5 16.268 10.5 24C10.5 31.732 16.768 38 24.5 38Z" fill="url(#paint0_radial_31_343)"/>
<path d="M24.5 38C32.232 38 38.5 31.732 38.5 24C38.5 16.268 32.232 10 24.5 10C16.768 10 10.5 16.268 10.5 24C10.5 31.732 16.768 38 24.5 38Z" fill="url(#paint1_radial_31_343)"/>
<path d="M24.5 38C32.232 38 38.5 31.732 38.5 24C38.5 16.268 32.232 10 24.5 10C16.768 10 10.5 16.268 10.5 24C10.5 31.732 16.768 38 24.5 38Z" fill="url(#paint2_radial_31_343)"/>
<path d="M24.5 38C32.232 38 38.5 31.732 38.5 24C38.5 16.268 32.232 10 24.5 10C16.768 10 10.5 16.268 10.5 24C10.5 31.732 16.768 38 24.5 38Z" fill="url(#paint3_radial_31_343)"/>
<path d="M30.5435 26.8722C30.428 26.8722 30.3263 26.9698 30.2205 27.1829C29.0256 29.6058 26.9619 31.3201 24.5737 31.3201C21.8123 31.3201 20.1023 28.8274 20.1023 25.3837C20.1023 19.5503 23.3525 16.1776 26.2072 16.1776C27.5412 16.1776 28.3558 17.0159 28.3558 18.35C28.3558 19.9333 27.4563 20.7716 27.4563 21.33C27.4563 21.5807 27.6122 21.7324 27.9214 21.7324C29.1636 21.7324 30.6215 20.3051 30.6215 18.2887C30.6215 16.3336 28.9198 14.8965 26.0652 14.8965C21.3472 14.8965 17.1543 19.2704 17.1543 25.3224C17.1543 30.0069 19.8294 33.1025 23.9568 33.1025C28.3377 33.1025 30.8708 28.7438 30.8708 27.3291C30.8708 27.0158 30.7106 26.8722 30.5435 26.8722Z" fill="white"/>
</g>
</g>
<defs>
<radialGradient id="paint0_radial_31_343" cx="0" cy="0" r="1" gradientUnits="userSpaceOnUse" gradientTransform="translate(15.9085 34.817) rotate(-49.416) scale(21.6556)">
<stop stop-color="#6420FF"/>
<stop offset="1" stop-color="#6420FF" stop-opacity="0"/>
</radialGradient>
<radialGradient id="paint1_radial_31_343" cx="0" cy="0" r="1" gradientUnits="userSpaceOnUse" gradientTransform="translate(17.9126 13.1831) rotate(54.703) scale(24.4207)">
<stop stop-color="#00C4CC"/>
<stop offset="1" stop-color="#00C4CC" stop-opacity="0"/>
</radialGradient>
<radialGradient id="paint2_radial_31_343" cx="0" cy="0" r="1" gradientUnits="userSpaceOnUse" gradientTransform="translate(15.9084 34.8168) rotate(-45.1954) scale(21.3935 9.83914)">
<stop stop-color="#6420FF"/>
<stop offset="1" stop-color="#6420FF" stop-opacity="0"/>
</radialGradient>
<radialGradient id="paint3_radial_31_343" cx="0" cy="0" r="1" gradientUnits="userSpaceOnUse" gradientTransform="translate(21.9505 13.7726) rotate(66.5198) scale(22.0443 36.9291)">
<stop stop-color="#00C4CC" stop-opacity="0.725916"/>
<stop offset="0.0001" stop-color="#00C4CC"/>
<stop offset="1" stop-color="#00C4CC" stop-opacity="0"/>
</radialGradient>
<clipPath id="clip0_31_343">
<rect width="48" height="48" rx="8" fill="white"/>
</clipPath>
<clipPath id="clip1_31_343">
<rect width="28" height="28" fill="white" transform="translate(10.5 10)"/>
</clipPath>
</defs>
</svg>
