<svg width="49" height="48" viewBox="0 0 49 48" fill="none" xmlns="http://www.w3.org/2000/svg">
<g clip-path="url(#clip0_647_2698)">
<rect width="48" height="48" transform="translate(0.5)" fill="white"/>
<path d="M9.00003 0H40.0001C44.7 0 48.5 3.8974 48.5 8.71796V39.282C48.5 44.1025 44.7 48 40 48H9.00003C4.29997 47.9999 0.5 44.1025 0.5 39.2819V8.71796C0.5 3.8974 4.29997 0 9.00003 0Z" fill="#F0F0F0"/>
<path d="M9.51028 16.5745C9.49794 17.4707 9.51028 18.3691 9.51028 19.2653C9.51085 19.3704 9.54182 19.4731 9.59945 19.561C9.65708 19.6489 9.7389 19.7183 9.83507 19.7607C12.6554 21.1641 15.4799 22.5626 18.3085 23.9563C15.5046 25.3336 12.7109 26.7294 9.91113 28.1128C9.80307 28.1473 9.70704 28.2118 9.63425 28.2988C9.56146 28.3858 9.5149 28.4917 9.5 28.6041C9.5 29.5025 9.5 30.4028 9.5 31.3012C9.59083 32.1923 9.97605 33.0278 10.5948 33.6756C11.2135 34.3233 12.0304 34.7464 12.9165 34.878C13.2701 34.9109 13.6236 34.9047 13.9772 34.9047H29.6783C30.0575 34.9213 30.4374 34.8903 30.8089 34.8122C31.3638 34.6774 31.8845 34.4284 32.3379 34.0812C32.7913 33.734 33.1674 33.2962 33.4422 32.7956C33.621 32.433 33.7656 32.0545 33.8739 31.665C35.4855 32.5037 37.1321 33.2849 38.7561 34.101C38.7901 34.1262 38.8305 34.1414 38.8728 34.1449C38.915 34.1484 38.9574 34.1401 38.9951 34.1209C39.0329 34.1017 39.0646 34.0723 39.0866 34.0361C39.1087 33.9999 39.1202 33.9583 39.1199 33.916C39.1199 32.9868 39.1199 32.0659 39.1199 31.1285C39.113 31.0366 39.0793 30.9487 39.0231 30.8756C38.9668 30.8026 38.8904 30.7476 38.8033 30.7174L25.1702 23.9563C29.7242 21.6965 34.2788 19.4353 38.8342 17.1727C38.9148 17.1378 38.9838 17.0805 39.033 17.0077C39.0822 16.9348 39.1095 16.8494 39.1117 16.7615C39.1117 15.8324 39.1117 14.9114 39.1117 13.9782C39.1072 13.9434 39.0944 13.9101 39.0744 13.8812C39.0545 13.8524 39.0279 13.8287 38.9969 13.8122C38.9659 13.7957 38.9314 13.7868 38.8963 13.7864C38.8612 13.7859 38.8265 13.7939 38.7951 13.8096L33.8451 16.2641C33.73 15.7262 33.5115 15.2159 33.2017 14.7614C32.8578 14.2625 32.4075 13.8462 31.8831 13.5426C31.3587 13.239 30.7735 13.0557 30.1696 13.0059H13.3317C12.3748 13.0503 11.465 13.4337 10.7648 14.0875C10.0647 14.7413 9.62002 15.6228 9.51028 16.5745Z" fill="black"/>
<path d="M12.6288 16.5929C12.7159 16.4195 12.8508 16.2747 13.0177 16.1756C13.1845 16.0765 13.3763 16.0273 13.5703 16.0338H29.8449C30.0936 16.0312 30.3349 16.1189 30.5239 16.2807C30.713 16.4425 30.8369 16.6674 30.8727 16.9136C30.8932 17.187 30.883 17.4604 30.8727 17.7359C27.8303 19.2433 24.7879 20.7508 21.7456 22.2583C18.6621 20.7453 15.5971 19.2139 12.5239 17.6906C12.5383 17.3247 12.4602 16.9321 12.6288 16.5929Z" fill="white"/>
<path d="M12.5241 30.2355C15.5884 28.7075 18.6561 27.1856 21.7272 25.6699C24.7819 27.1582 27.8243 28.6876 30.8749 30.1924C30.8543 30.587 30.9509 31.0146 30.7433 31.3785C30.6538 31.5352 30.5242 31.6652 30.3677 31.7552C30.2113 31.8451 30.0337 31.8918 29.8532 31.8903H13.5725C13.3813 31.8955 13.1925 31.8473 13.0273 31.751C12.862 31.6548 12.7269 31.5144 12.6371 31.3456C12.4562 31.0043 12.5385 30.6055 12.5241 30.2355Z" fill="white"/>
<path d="M9.51016 16.5748C9.6186 15.6217 10.063 14.7384 10.7637 14.0833C11.4644 13.4283 12.3755 13.0442 13.3337 13H30.1777C30.7816 13.0498 31.3668 13.2331 31.8912 13.5367C32.4156 13.8403 32.8659 14.2566 33.2098 14.7555C33.5196 15.21 33.7381 15.7204 33.8532 16.2582L38.8032 13.8038C38.8346 13.788 38.8693 13.7801 38.9044 13.7805C38.9395 13.781 38.974 13.7898 39.005 13.8063C39.036 13.8228 39.0626 13.8465 39.0826 13.8754C39.1025 13.9043 39.1153 13.9375 39.1198 13.9723C39.1198 14.8994 39.1198 15.8224 39.1198 16.7557C39.1217 16.8487 39.0955 16.9401 39.0445 17.0179C38.9935 17.0957 38.9201 17.1562 38.8341 17.1915C34.2801 19.4499 29.7254 21.7112 25.1701 23.9751L38.8032 30.7197C38.8903 30.7499 38.9667 30.8049 39.0229 30.878C39.0792 30.951 39.1128 31.0389 39.1198 31.1309C39.1198 32.06 39.1198 32.9809 39.1198 33.9183C39.1201 33.9607 39.1086 34.0023 39.0865 34.0385C39.0645 34.0747 39.0328 34.1041 38.995 34.1233C38.9573 34.1425 38.9149 34.1508 38.8726 34.1473C38.8304 34.1437 38.79 34.1285 38.7559 34.1033C37.132 33.2811 35.4854 32.5061 33.8738 31.6674C33.7655 32.0569 33.6209 32.4354 33.4421 32.798C33.169 33.3004 32.7942 33.7404 32.3415 34.0897C31.8887 34.4391 31.3681 34.6902 30.8129 34.8269C30.4414 34.905 30.0615 34.936 29.6823 34.9194H13.9833C13.6297 34.9194 13.2741 34.9194 12.9225 34.8927C12.0363 34.76 11.2196 34.3356 10.6016 33.6867C9.98354 33.0378 9.59949 32.2014 9.51016 31.3097C9.51016 30.4114 9.51016 29.511 9.51016 28.6127C9.52506 28.5002 9.57162 28.3943 9.64442 28.3074C9.71721 28.2204 9.81323 28.1559 9.92129 28.1214C12.7211 26.7379 15.5147 25.3421 18.3186 23.9648C15.4942 22.5588 12.6676 21.1568 9.83907 19.759C9.7429 19.7165 9.66107 19.6472 9.60344 19.5593C9.54581 19.4714 9.51484 19.3687 9.51427 19.2636C9.51016 18.3694 9.49577 17.471 9.51016 16.5748ZM12.6306 16.5933C12.4621 16.9325 12.5402 17.3251 12.5258 17.691C15.6093 19.2142 18.6701 20.7457 21.7475 22.2587C24.7885 20.7512 27.8308 19.2437 30.8746 17.7362C30.8746 17.4628 30.8869 17.1894 30.8746 16.914C30.8387 16.6677 30.7148 16.4429 30.5258 16.2811C30.3368 16.1193 30.0955 16.0315 29.8467 16.0341H13.5701C13.3761 16.0276 13.1844 16.0768 13.0175 16.1759C12.8507 16.275 12.7157 16.4199 12.6286 16.5933H12.6306ZM12.5258 30.2346C12.5402 30.6046 12.46 31.0034 12.6389 31.3467C12.7287 31.5155 12.8638 31.6559 13.029 31.7522C13.1942 31.8484 13.383 31.8966 13.5742 31.8914H29.8611C30.0416 31.8929 30.2192 31.8463 30.3756 31.7563C30.5321 31.6663 30.6617 31.5363 30.7512 31.3796C30.9568 31.0198 30.8622 30.5882 30.8828 30.1935C27.8342 28.6887 24.7898 27.1593 21.7351 25.671C18.6558 27.1922 15.5853 28.7134 12.5237 30.2346H12.5258Z" fill="black"/>
</g>
<defs>
<clipPath id="clip0_647_2698">
<rect width="48" height="48" fill="white" transform="translate(0.5)"/>
</clipPath>
</defs>
</svg>
