<svg width="48" height="48" viewBox="0 0 48 48" fill="none" xmlns="http://www.w3.org/2000/svg">
<g clip-path="url(#clip0_31_353)">
<rect width="48" height="48" rx="8" fill="white"/>
<path d="M8.50003 0H39.5001C44.2 0 48 3.8974 48 8.71796V39.282C48 44.1025 44.2 48 39.5 48H8.50003C3.79997 47.9999 0 44.1025 0 39.2819V8.71796C0 3.8974 3.79997 0 8.50003 0Z" fill="#F0F0F0"/>
<path d="M9.01028 16.5745C8.99794 17.4707 9.01028 18.3691 9.01028 19.2653C9.01085 19.3704 9.04182 19.4731 9.09945 19.561C9.15708 19.6489 9.2389 19.7183 9.33507 19.7607C12.1554 21.1641 14.9799 22.5626 17.8085 23.9563C15.0046 25.3336 12.2109 26.7294 9.41113 28.1128C9.30307 28.1473 9.20704 28.2118 9.13425 28.2988C9.06146 28.3858 9.0149 28.4917 9 28.6041C9 29.5025 9 30.4028 9 31.3012C9.09083 32.1923 9.47605 33.0278 10.0948 33.6756C10.7135 34.3233 11.5304 34.7464 12.4165 34.878C12.7701 34.9109 13.1236 34.9047 13.4772 34.9047H29.1783C29.5575 34.9213 29.9374 34.8903 30.3089 34.8122C30.8638 34.6774 31.3845 34.4284 31.8379 34.0812C32.2913 33.734 32.6674 33.2962 32.9422 32.7956C33.121 32.433 33.2656 32.0545 33.3739 31.665C34.9855 32.5037 36.6321 33.2849 38.2561 34.101C38.2901 34.1262 38.3305 34.1414 38.3728 34.1449C38.415 34.1484 38.4574 34.1401 38.4951 34.1209C38.5329 34.1017 38.5646 34.0723 38.5866 34.0361C38.6087 33.9999 38.6202 33.9583 38.6199 33.916C38.6199 32.9868 38.6199 32.0659 38.6199 31.1285C38.613 31.0366 38.5793 30.9487 38.5231 30.8756C38.4668 30.8026 38.3904 30.7476 38.3033 30.7174L24.6702 23.9563C29.2242 21.6965 33.7788 19.4353 38.3342 17.1727C38.4148 17.1378 38.4838 17.0805 38.533 17.0077C38.5822 16.9348 38.6095 16.8494 38.6117 16.7615C38.6117 15.8324 38.6117 14.9114 38.6117 13.9782C38.6072 13.9434 38.5944 13.9101 38.5744 13.8812C38.5545 13.8524 38.5279 13.8287 38.4969 13.8122C38.4659 13.7957 38.4314 13.7868 38.3963 13.7864C38.3612 13.7859 38.3265 13.7939 38.2951 13.8096L33.3451 16.2641C33.23 15.7262 33.0115 15.2159 32.7017 14.7614C32.3578 14.2625 31.9075 13.8462 31.3831 13.5426C30.8587 13.239 30.2735 13.0557 29.6696 13.0059H12.8317C11.8748 13.0503 10.965 13.4337 10.2648 14.0875C9.56472 14.7413 9.12002 15.6228 9.01028 16.5745Z" fill="#272626"/>
<path d="M12.1283 16.5929C12.2154 16.4195 12.3503 16.2747 12.5172 16.1756C12.6841 16.0765 12.8758 16.0273 13.0698 16.0338H29.3444C29.5932 16.0312 29.8344 16.1189 30.0235 16.2807C30.2125 16.4425 30.3364 16.6674 30.3722 16.9136C30.3927 17.187 30.3825 17.4604 30.3722 17.7359C27.3298 19.2433 24.2875 20.7508 21.2451 22.2583C18.1616 20.7453 15.0966 19.2139 12.0234 17.6906C12.0378 17.3247 11.9597 16.9321 12.1283 16.5929Z" fill="white"/>
<path d="M12.0241 30.2355C15.0884 28.7075 18.1561 27.1856 21.2272 25.6699C24.2819 27.1582 27.3243 28.6876 30.3749 30.1924C30.3543 30.587 30.4509 31.0146 30.2433 31.3785C30.1538 31.5352 30.0242 31.6652 29.8677 31.7552C29.7113 31.8451 29.5337 31.8918 29.3532 31.8903H13.0725C12.8813 31.8955 12.6925 31.8473 12.5273 31.751C12.362 31.6548 12.2269 31.5144 12.1371 31.3456C11.9562 31.0043 12.0385 30.6055 12.0241 30.2355Z" fill="white"/>
<path d="M9.01016 16.5748C9.1186 15.6217 9.563 14.7384 10.2637 14.0833C10.9644 13.4283 11.8755 13.0442 12.8337 13H29.6777C30.2816 13.0498 30.8668 13.2331 31.3912 13.5367C31.9156 13.8403 32.3659 14.2566 32.7098 14.7555C33.0196 15.21 33.2381 15.7204 33.3532 16.2582L38.3032 13.8038C38.3346 13.788 38.3693 13.7801 38.4044 13.7805C38.4395 13.781 38.474 13.7898 38.505 13.8063C38.536 13.8228 38.5626 13.8465 38.5826 13.8754C38.6025 13.9043 38.6153 13.9375 38.6198 13.9723C38.6198 14.8994 38.6198 15.8224 38.6198 16.7557C38.6217 16.8487 38.5955 16.9401 38.5445 17.0179C38.4935 17.0957 38.4201 17.1562 38.3341 17.1915C33.7801 19.4499 29.2254 21.7112 24.6701 23.9751L38.3032 30.7197C38.3903 30.7499 38.4667 30.8049 38.5229 30.878C38.5792 30.951 38.6128 31.0389 38.6198 31.1309C38.6198 32.06 38.6198 32.9809 38.6198 33.9183C38.6201 33.9607 38.6086 34.0023 38.5865 34.0385C38.5645 34.0747 38.5328 34.1041 38.495 34.1233C38.4573 34.1425 38.4149 34.1508 38.3726 34.1473C38.3304 34.1437 38.29 34.1285 38.2559 34.1033C36.632 33.2811 34.9854 32.5061 33.3738 31.6674C33.2655 32.0569 33.1209 32.4354 32.9421 32.798C32.669 33.3004 32.2942 33.7404 31.8415 34.0897C31.3887 34.4391 30.8681 34.6902 30.3129 34.8269C29.9414 34.905 29.5615 34.936 29.1823 34.9194H13.4833C13.1297 34.9194 12.7741 34.9194 12.4225 34.8927C11.5363 34.76 10.7196 34.3356 10.1016 33.6867C9.48354 33.0378 9.09949 32.2014 9.01016 31.3097C9.01016 30.4114 9.01016 29.511 9.01016 28.6127C9.02506 28.5002 9.07162 28.3943 9.14442 28.3074C9.21721 28.2204 9.31323 28.1559 9.42129 28.1214C12.2211 26.7379 15.0147 25.3421 17.8186 23.9648C14.9942 22.5588 12.1676 21.1568 9.33907 19.759C9.2429 19.7165 9.16107 19.6472 9.10344 19.5593C9.04581 19.4714 9.01484 19.3687 9.01427 19.2636C9.01016 18.3694 8.99577 17.471 9.01016 16.5748ZM12.1306 16.5933C11.9621 16.9325 12.0402 17.3251 12.0258 17.691C15.1093 19.2142 18.1701 20.7457 21.2475 22.2587C24.2885 20.7512 27.3308 19.2437 30.3746 17.7362C30.3746 17.4628 30.3869 17.1894 30.3746 16.914C30.3387 16.6677 30.2148 16.4429 30.0258 16.2811C29.8368 16.1193 29.5955 16.0315 29.3467 16.0341H13.0701C12.8761 16.0276 12.6844 16.0768 12.5175 16.1759C12.3507 16.275 12.2157 16.4199 12.1286 16.5933H12.1306ZM12.0258 30.2346C12.0402 30.6046 11.96 31.0034 12.1389 31.3467C12.2287 31.5155 12.3638 31.6559 12.529 31.7522C12.6942 31.8484 12.883 31.8966 13.0742 31.8914H29.3611C29.5416 31.8929 29.7192 31.8463 29.8756 31.7563C30.0321 31.6663 30.1617 31.5363 30.2512 31.3796C30.4568 31.0198 30.3622 30.5882 30.3828 30.1935C27.3342 28.6887 24.2898 27.1593 21.2351 25.671C18.1558 27.1922 15.0853 28.7134 12.0237 30.2346H12.0258Z" fill="#272626"/>
</g>
<defs>
<clipPath id="clip0_31_353">
<rect width="48" height="48" rx="8" fill="white"/>
</clipPath>
</defs>
</svg>
