<svg width="49" height="48" viewBox="0 0 49 48" fill="none" xmlns="http://www.w3.org/2000/svg">
<path d="M9.00003 0H40.0001C44.7 0 48.5 3.8974 48.5 8.71796V39.282C48.5 44.1025 44.7 48 40 48H9.00003C4.29997 47.9999 0.5 44.1025 0.5 39.2819V8.71796C0.5 3.8974 4.29997 0 9.00003 0Z" fill="#111111"/>
<path d="M24.0703 24C24.0703 21.2386 26.3089 19 29.0703 19C31.8317 19 34.0703 21.2386 34.0703 24C34.0703 26.7615 31.8317 29 29.0703 29C26.3088 29 24.0703 26.7614 24.0703 24Z" fill="#00BCFF"/>
<path d="M14.0703 34.0005C14.0703 31.2391 16.3089 29.0005 19.0703 29.0005L21.7349 27.5938L24.0703 29.0005V34.0005C24.0703 36.762 21.8317 39.0005 19.0703 39.0005C16.3089 39.0005 14.0703 36.7619 14.0703 34.0005Z" fill="#00CF7F"/>
<path d="M24.0704 9L21.3496 13.7268L24.0704 19H29.0002C31.7617 19 34.0002 16.7614 34.0002 14C34.0002 11.2386 31.7616 9 29.0002 9H24.0704Z" fill="#FF7361"/>
<path d="M14 14C14 16.7614 16.2386 19 19 19L21.6524 20.0244L24.0701 19V9H18.9999C16.2386 9 14 11.2386 14 14Z" fill="#FF4D12"/>
<path d="M14.0703 24C14.0703 26.7615 16.3089 29 19.0703 29H24.0703V19H19.0703C16.3089 19 14.0703 21.2386 14.0703 24Z" fill="#B659FF"/>
</svg>
