<svg width="20" height="21" viewBox="0 0 20 21" fill="none" xmlns="http://www.w3.org/2000/svg">
<path d="M18.8997 1.60016C18.1662 0.866766 17.2831 0.5 16.2499 0.5H3.74998C2.71709 0.5 1.83374 0.866766 1.10016 1.60016C0.366766 2.33369 0 3.21704 0 4.24998V16.7501C0 17.7831 0.366766 18.6664 1.10016 19.3997C1.83369 20.1333 2.71709 20.5 3.74998 20.5H6.66664C6.85745 20.5 7.00079 20.4935 7.09625 20.4807C7.19166 20.4676 7.28706 20.4111 7.38261 20.3112C7.4782 20.2114 7.52581 20.066 7.52581 19.8751C7.52581 19.8492 7.52353 19.5538 7.51925 18.9896C7.51482 18.4252 7.51268 17.9782 7.51268 17.6483L7.21318 17.7004C7.02223 17.7351 6.78134 17.7504 6.4905 17.746C6.19981 17.7416 5.89808 17.7113 5.58563 17.6549C5.273 17.5983 4.98231 17.4682 4.71318 17.2644C4.4442 17.0602 4.25324 16.7933 4.14037 16.4636L4.01012 16.1639C3.92333 15.9645 3.78669 15.743 3.60002 15.5001C3.41336 15.257 3.22459 15.092 3.03364 15.0052L2.94247 14.9401C2.88177 14.8967 2.82536 14.8444 2.77323 14.7837C2.72119 14.7228 2.68215 14.662 2.65611 14.6014C2.63007 14.5405 2.65169 14.4906 2.72119 14.4514C2.79069 14.4124 2.91643 14.3931 3.09881 14.3931L3.35913 14.4321C3.5328 14.4667 3.74751 14.5708 4.00373 14.7445C4.25976 14.9181 4.47024 15.1438 4.6352 15.4215C4.83495 15.7775 5.07562 16.0486 5.35787 16.2352C5.6399 16.4221 5.92426 16.5154 6.21066 16.5154C6.49707 16.5154 6.74444 16.4937 6.95286 16.4504C7.16105 16.4069 7.35639 16.3417 7.53877 16.2549C7.61689 15.6733 7.8296 15.226 8.17671 14.9136C7.68197 14.8615 7.23713 14.7834 6.84204 14.6792C6.44718 14.5749 6.03914 14.4058 5.61819 14.1713C5.19707 13.9369 4.84772 13.6463 4.56993 13.2989C4.29219 12.9514 4.06425 12.4957 3.88643 11.9317C3.70852 11.3673 3.61954 10.7162 3.61954 9.9784C3.61954 8.92813 3.96255 8.03389 4.64828 7.29611C4.32703 6.50621 4.35736 5.6209 4.73936 4.63991C4.99111 4.56174 5.36444 4.62039 5.85918 4.81572C6.35401 5.01119 6.7163 5.17834 6.94643 5.31703C7.17656 5.45576 7.36095 5.57306 7.49986 5.66865C8.30732 5.44295 9.1406 5.33012 9.99991 5.33012C10.8592 5.33012 11.6926 5.44295 12.5001 5.66865L12.9949 5.35616C13.3335 5.14774 13.7328 4.95678 14.1929 4.78325C14.653 4.60967 15.0045 4.56188 15.2476 4.64005C15.6381 5.62104 15.6731 6.50635 15.3516 7.2962C16.0373 8.03407 16.3804 8.92827 16.3804 9.97854C16.3804 10.7164 16.2914 11.3698 16.1135 11.9382C15.9358 12.5068 15.7058 12.9626 15.4235 13.3055C15.1415 13.6484 14.7898 13.9368 14.3689 14.1714C13.9479 14.4057 13.5399 14.5752 13.1448 14.6791C12.7498 14.7833 12.305 14.8617 11.8103 14.9138C12.2613 15.3043 12.487 15.9204 12.487 16.7626V19.8747C12.487 20.0223 12.5085 20.1416 12.5519 20.2327C12.5956 20.3239 12.665 20.3866 12.7604 20.4216C12.8563 20.4563 12.9405 20.4779 13.0145 20.4865C13.0885 20.4953 13.1946 20.4996 13.3335 20.4996H16.2502C17.2831 20.4996 18.1664 20.1329 18.8997 19.3993C19.6332 18.6658 20 17.7824 20 16.7495V4.24998C19.9999 3.21704 19.6331 2.33356 18.8997 1.60016Z" fill="#D2DEFC"/>
</svg>
