<svg width="20" height="21" viewBox="0 0 20 21" fill="none" xmlns="http://www.w3.org/2000/svg">
<g clip-path="url(#clip0_121_277)">
<path d="M17.2727 0.5H2.72727C2.00396 0.5 1.31026 0.787337 0.7988 1.2988C0.287337 1.81026 0 2.50396 0 3.22727L0 17.7727C0 18.496 0.287337 19.1897 0.7988 19.7012C1.31026 20.2127 2.00396 20.5 2.72727 20.5H17.2727C17.996 20.5 18.6897 20.2127 19.2012 19.7012C19.7127 19.1897 20 18.496 20 17.7727V3.22727C20 2.50396 19.7127 1.81026 19.2012 1.2988C18.6897 0.787337 17.996 0.5 17.2727 0.5ZM6.81818 16.3273C6.81833 16.3827 6.80754 16.4377 6.78642 16.489C6.7653 16.5402 6.73427 16.5868 6.6951 16.6261C6.65594 16.6654 6.60941 16.6965 6.55819 16.7178C6.50697 16.7391 6.45205 16.75 6.39659 16.75H4.6C4.54444 16.7502 4.48941 16.7393 4.43805 16.7181C4.3867 16.6969 4.34004 16.6658 4.30075 16.6265C4.26147 16.5872 4.23034 16.5406 4.20915 16.4892C4.18795 16.4379 4.17712 16.3828 4.17727 16.3273V8.79545C4.17727 8.68334 4.22181 8.57582 4.30109 8.49654C4.38036 8.41726 4.48789 8.37273 4.6 8.37273H6.39659C6.50851 8.37303 6.61574 8.4177 6.69477 8.49694C6.7738 8.57619 6.81818 8.68354 6.81818 8.79545V16.3273ZM5.49773 7.65909C5.1606 7.65909 4.83104 7.55912 4.55073 7.37182C4.27042 7.18453 4.05195 6.91831 3.92293 6.60685C3.79392 6.29538 3.76016 5.95265 3.82593 5.62201C3.8917 5.29136 4.05405 4.98763 4.29243 4.74925C4.53082 4.51086 4.83454 4.34852 5.16519 4.28275C5.49584 4.21698 5.83856 4.25074 6.15003 4.37975C6.46149 4.50876 6.72771 4.72724 6.91501 5.00755C7.1023 5.28786 7.20227 5.61742 7.20227 5.95455C7.20227 6.40662 7.02269 6.84018 6.70302 7.15984C6.38336 7.47951 5.9498 7.65909 5.49773 7.65909ZM16.2091 16.3568C16.2092 16.4079 16.1993 16.4585 16.1798 16.5057C16.1603 16.5529 16.1317 16.5958 16.0956 16.632C16.0595 16.6681 16.0166 16.6967 15.9694 16.7162C15.9221 16.7357 15.8715 16.7456 15.8205 16.7455H13.8886C13.8376 16.7456 13.787 16.7357 13.7397 16.7162C13.6925 16.6967 13.6496 16.6681 13.6135 16.632C13.5774 16.5958 13.5488 16.5529 13.5293 16.5057C13.5098 16.4585 13.4999 16.4079 13.5 16.3568V12.8284C13.5 12.3011 13.6545 10.5193 12.1216 10.5193C10.9341 10.5193 10.692 11.7386 10.6443 12.2864V16.3614C10.6443 16.4635 10.6042 16.5615 10.5325 16.6342C10.4608 16.7069 10.3634 16.7485 10.2614 16.75H8.39545C8.34447 16.75 8.29399 16.7399 8.2469 16.7204C8.19981 16.7008 8.15705 16.6722 8.12105 16.6361C8.08505 16.6 8.05653 16.5571 8.03712 16.51C8.01772 16.4629 8.00781 16.4123 8.00795 16.3614V8.7625C8.00781 8.71152 8.01772 8.66101 8.03712 8.61386C8.05653 8.56672 8.08505 8.52386 8.12105 8.48776C8.15705 8.45166 8.19981 8.42301 8.2469 8.40347C8.29399 8.38392 8.34447 8.37386 8.39545 8.37386H10.2614C10.3644 8.37386 10.4633 8.41481 10.5362 8.48769C10.6091 8.56058 10.65 8.65943 10.65 8.7625V9.41932C11.0909 8.75682 11.7443 8.24773 13.1386 8.24773C16.2273 8.24773 16.2068 11.1318 16.2068 12.7159L16.2091 16.3568Z" fill="#D2DEFC"/>
</g>
<defs>
<clipPath id="clip0_121_277">
<rect width="20" height="20" fill="white" transform="translate(0 0.5)"/>
</clipPath>
</defs>
</svg>
