<svg width="49" height="48" viewBox="0 0 49 48" fill="none" xmlns="http://www.w3.org/2000/svg">
<g clip-path="url(#clip0_647_2705)">
<rect width="48" height="48" transform="translate(0.5)" fill="white"/>
<path d="M9.00003 0H40.0001C44.7 0 48.5 3.8974 48.5 8.71796V39.282C48.5 44.1025 44.7 48 40 48H9.00003C4.29997 47.9999 0.5 44.1025 0.5 39.2819V8.71796C0.5 3.8974 4.29997 0 9.00003 0Z" fill="#F0F0F0"/>
<path d="M15.9501 14.6489C16.8459 15.3766 17.1819 15.3211 18.864 15.2088L34.7219 14.2567C35.0581 14.2567 34.7784 13.9211 34.6664 13.8654L32.0326 11.9614C31.5281 11.5697 30.8557 11.121 29.5672 11.2332L14.212 12.3532C13.652 12.4087 13.5401 12.6887 13.7632 12.9131L15.9501 14.6489ZM16.9022 18.3445V35.0298C16.9022 35.9264 17.3503 36.262 18.3589 36.2065L35.7867 35.1981C36.7957 35.1427 36.9081 34.5257 36.9081 33.7974V17.2241C36.9081 16.4968 36.6285 16.1046 36.0107 16.1606L17.7984 17.2241C17.1263 17.2805 16.9022 17.6167 16.9022 18.3445ZM34.1069 19.2395C34.2187 19.744 34.1069 20.248 33.6015 20.3047L32.7618 20.472V32.79C32.0326 33.1819 31.3604 33.4059 30.8002 33.4059C29.9032 33.4059 29.6786 33.1258 29.0068 32.2863L23.5141 23.6636V32.0064L25.2522 32.3985C25.2522 32.3985 25.2522 33.4059 23.8499 33.4059L19.9842 33.6301C19.8719 33.4059 19.9842 32.8465 20.3763 32.7343L21.3851 32.4549V21.4242L19.9844 21.3119C19.8721 20.8075 20.1519 20.0802 20.9369 20.0237L25.084 19.7442L30.8002 28.4792V20.7519L29.3428 20.5847C29.2309 19.968 29.6786 19.5202 30.239 19.4647L34.1069 19.2395ZM12.9227 10.8415L28.8946 9.66529C30.8561 9.49706 31.3606 9.60975 32.5935 10.5053L37.6917 14.0887C38.5331 14.7049 38.8134 14.8726 38.8134 15.5444V35.1981C38.8134 36.4297 38.3648 37.1582 36.7959 37.2696L18.2479 38.3898C17.0703 38.4459 16.5098 38.278 15.8931 37.4936L12.1386 32.6223C11.4658 31.7257 11.186 31.0548 11.186 30.2699V12.8005C11.186 11.7932 11.6348 10.953 12.9227 10.8415Z" fill="black"/>
</g>
<defs>
<clipPath id="clip0_647_2705">
<rect width="48" height="48" fill="white" transform="translate(0.5)"/>
</clipPath>
</defs>
</svg>
