<svg width="48" height="48" viewBox="0 0 48 48" fill="none" xmlns="http://www.w3.org/2000/svg">
<g clip-path="url(#clip0_31_361)">
<rect width="48" height="48" rx="8" fill="white"/>
<path d="M8.50003 0H39.5001C44.2 0 48 3.8974 48 8.71796V39.282C48 44.1025 44.2 48 39.5 48H8.50003C3.79997 47.9999 0 44.1025 0 39.2819V8.71796C0 3.8974 3.79997 0 8.50003 0Z" fill="#F0F0F0"/>
<path d="M15.4496 14.6489C16.3454 15.3766 16.6814 15.3211 18.3635 15.2088L34.2214 14.2567C34.5576 14.2567 34.278 13.9211 34.166 13.8654L31.5321 11.9614C31.0276 11.5697 30.3552 11.121 29.0667 11.2332L13.7115 12.3532C13.1515 12.4087 13.0397 12.6887 13.2627 12.9131L15.4496 14.6489ZM16.4017 18.3445V35.0298C16.4017 35.9264 16.8498 36.262 17.8584 36.2065L35.2862 35.1981C36.2952 35.1427 36.4077 34.5257 36.4077 33.7974V17.2241C36.4077 16.4968 36.128 16.1046 35.5102 16.1606L17.2979 17.2241C16.6259 17.2805 16.4017 17.6167 16.4017 18.3445ZM33.6064 19.2395C33.7182 19.744 33.6064 20.248 33.101 20.3047L32.2613 20.472V32.79C31.5321 33.1819 30.8599 33.4059 30.2997 33.4059C29.4028 33.4059 29.1781 33.1258 28.5063 32.2863L23.0136 23.6636V32.0064L24.7517 32.3985C24.7517 32.3985 24.7517 33.4059 23.3494 33.4059L19.4837 33.6301C19.3714 33.4059 19.4837 32.8465 19.8758 32.7343L20.8846 32.4549V21.4242L19.4839 21.3119C19.3716 20.8075 19.6514 20.0802 20.4365 20.0237L24.5836 19.7442L30.2997 28.4792V20.7519L28.8423 20.5847C28.7304 19.968 29.1781 19.5202 29.7386 19.4647L33.6064 19.2395ZM12.4223 10.8415L28.3942 9.66529C30.3556 9.49706 30.8601 9.60975 32.093 10.5053L37.1912 14.0887C38.0326 14.7049 38.3129 14.8726 38.3129 15.5444V35.1981C38.3129 36.4297 37.8643 37.1582 36.2954 37.2696L17.7474 38.3898C16.5698 38.4459 16.0093 38.278 15.3926 37.4936L11.6381 32.6223C10.9653 31.7257 10.6855 31.0548 10.6855 30.2699V12.8005C10.6855 11.7932 11.1344 10.953 12.4223 10.8415Z" fill="#272626"/>
</g>
<defs>
<clipPath id="clip0_31_361">
<rect width="48" height="48" rx="8" fill="white"/>
</clipPath>
</defs>
</svg>
