<svg width="49" height="48" viewBox="0 0 49 48" fill="none" xmlns="http://www.w3.org/2000/svg">
<path d="M9.00003 0H40.0001C44.7 0 48.5 3.8974 48.5 8.71796V39.282C48.5 44.1025 44.7 48 40 48H9.00003C4.29997 47.9999 0.5 44.1025 0.5 39.2819V8.71796C0.5 3.8974 4.29997 0 9.00003 0Z" fill="#001834"/>
<path d="M10 34.4564V13.3488C10 13.2052 10.0615 13.1231 10.2051 13.1231C10.5538 13.1231 10.882 13.1231 11.3538 13.1026C11.8462 13.0821 12.3589 13.0821 12.9128 13.0615C13.4666 13.041 14.0615 13.0411 14.6974 13.0205C15.3333 13 15.9486 13 16.564 13C18.246 13 19.6409 13.2051 20.7897 13.6359C21.8154 13.9846 22.7589 14.5589 23.5384 15.3179C24.1949 15.9743 24.7077 16.7743 25.0358 17.6563C25.3435 18.5179 25.5077 19.3999 25.5077 20.323C25.5077 22.0871 25.0974 23.5434 24.2769 24.6922C23.4564 25.8409 22.3077 26.7025 20.9743 27.1948C19.5794 27.7076 18.0409 27.8922 16.3589 27.8922C15.8666 27.8922 15.5385 27.8922 15.3333 27.8717C15.1282 27.8512 14.841 27.8512 14.4512 27.8512V34.4358C14.4717 34.5794 14.3692 34.7025 14.2256 34.723H10.2462C10.082 34.723 10 34.641 10 34.4564ZM14.4718 17.0821V23.9744C14.759 23.9949 15.0257 24.0155 15.2718 24.0155H16.359C17.7755 24.0155 19.4113 23.6826 20.4 22.5591C21.2508 21.5922 21.2532 19.6747 20.5641 18.6207C19.746 17.3694 18.1101 17.0069 16.7077 17.0411C16.1743 17.0411 15.7026 17.0411 15.3128 17.0616C14.9026 17.0411 14.6154 17.0615 14.4718 17.0821ZM38.3076 22.7231C37.6923 22.3949 37.0358 22.1692 36.3384 22.0257C35.5795 21.8615 34.8204 21.759 34.041 21.759C33.6307 21.7385 33.2 21.8001 32.8102 21.9026C32.5436 21.9641 32.3179 22.1077 32.1744 22.3129C32.0718 22.477 32.0102 22.6821 32.0102 22.8667C32.0102 23.0513 32.0923 23.2359 32.2153 23.4001C32.4 23.6257 32.6461 23.8104 32.9127 23.9539C33.3846 24.2001 33.8769 24.4257 34.3692 24.6308C35.4769 25.0001 36.5435 25.5129 37.5281 26.1282C38.205 26.559 38.7589 27.1333 39.1486 27.8308C39.4768 28.4873 39.6409 29.2052 39.6204 29.9436C39.6409 30.9078 39.3538 31.8718 38.8204 32.6718C38.2461 33.4923 37.4461 34.1282 36.523 34.4975C35.5179 34.9282 34.2872 35.1539 32.8102 35.1539C31.8667 35.1539 30.9436 35.0719 30.0205 34.8873C29.2971 34.7622 28.5935 34.5415 27.9282 34.2308C27.7847 34.1488 27.6821 34.0051 27.7026 33.8411V30.2719C27.7026 30.2104 27.723 30.1283 27.7846 30.0873C27.8461 30.0462 27.9077 30.0668 27.9692 30.1078C28.7692 30.5796 29.6102 30.9078 30.5127 31.1128C31.2923 31.3179 32.1127 31.4205 32.9332 31.4205C33.7127 31.4205 34.2666 31.3179 34.6358 31.1333C34.964 30.9898 35.1897 30.641 35.1897 30.2718C35.1897 29.9846 35.0255 29.7179 34.6974 29.4513C34.3692 29.1847 33.6923 28.877 32.6871 28.4872C31.6409 28.1179 30.6768 27.6256 29.7743 27.0103C29.1384 26.559 28.6051 25.9641 28.2153 25.2667C27.8872 24.6103 27.723 23.8924 27.7435 23.1744C27.7435 22.2924 27.9897 21.4513 28.4409 20.6924C28.9537 19.8719 29.7127 19.2155 30.5948 18.8052C31.5589 18.3129 32.7691 18.0872 34.2255 18.0872C35.0666 18.0872 35.9281 18.1487 36.7691 18.2718C37.3845 18.3538 37.9794 18.518 38.5332 18.7436C38.6152 18.7641 38.6973 18.8462 38.7383 18.9283C38.7588 19.0103 38.7794 19.0924 38.7794 19.1744V22.518C38.7794 22.6 38.7383 22.6821 38.6768 22.7231C38.4923 22.7641 38.3897 22.7641 38.3076 22.7231Z" fill="#00A9FF"/>
</svg>
