<svg width="18" height="16" viewBox="0 0 18 16" fill="none" xmlns="http://www.w3.org/2000/svg">
<path opacity="0.85" d="M16.8939 7.16606C17.052 7.01186 17.1638 6.8165 17.2167 6.60207C17.2696 6.38763 17.2614 6.16268 17.1931 5.95266C17.1248 5.74263 16.9991 5.5559 16.8302 5.41358C16.6613 5.27127 16.456 5.17904 16.2374 5.14734L12.2424 4.56808C12.1583 4.55545 12.0785 4.52247 12.01 4.47199C11.9416 4.42152 11.8864 4.35508 11.8495 4.27845L10.0634 0.66097C9.96581 0.462611 9.81459 0.295558 9.62689 0.178738C9.4392 0.0619177 9.22254 0 9.00146 0C8.78038 0 8.56372 0.0619177 8.37602 0.178738C8.18833 0.295558 8.0371 0.462611 7.93948 0.66097L6.15922 4.28135C6.12218 4.3581 6.06691 4.42461 5.99825 4.4751C5.9296 4.52558 5.84963 4.5585 5.76532 4.57098L1.77036 5.15024C1.55206 5.18175 1.34692 5.27363 1.17806 5.41552C1.00919 5.5574 0.883336 5.74365 0.814675 5.95324C0.746014 6.16284 0.737281 6.38745 0.789463 6.60175C0.841645 6.81604 0.952665 7.0115 1.11 7.16606L4.00051 9.98416C4.06117 10.0433 4.10657 10.1163 4.13281 10.1968C4.15904 10.2774 4.16532 10.3631 4.15112 10.4466L3.46952 14.4252C3.43862 14.5942 3.44572 14.768 3.4903 14.934C3.53488 15.1 3.61584 15.254 3.72729 15.3848C3.90206 15.5906 4.14134 15.7313 4.40619 15.7839C4.67105 15.8365 4.94591 15.7979 5.18606 15.6744L8.75817 13.7957C8.833 13.7579 8.91568 13.7381 8.99953 13.7381C9.08338 13.7381 9.16606 13.7579 9.24089 13.7957L12.813 15.6744C12.9823 15.7649 13.1713 15.8123 13.3633 15.8125C13.5365 15.812 13.7074 15.7737 13.8642 15.7002C14.021 15.6266 14.1598 15.5196 14.2708 15.3867C14.3823 15.2559 14.4632 15.1019 14.5078 14.9359C14.5524 14.77 14.5595 14.5962 14.5286 14.4271L13.846 10.4485C13.8318 10.365 13.8381 10.2793 13.8643 10.1988C13.8906 10.1182 13.936 10.0452 13.9966 9.98609L16.8939 7.16606Z" fill="#FFBB24"/>
</svg>
