<svg width="20" height="18" viewBox="0 0 20 18" fill="none" xmlns="http://www.w3.org/2000/svg">
<path d="M10 0.537109C6.78 0.537109 2.60066 1.3439 2.60066 1.3439L2.59014 1.35592C1.12359 1.59047 0 2.85067 0 4.38326V8.99865V9.00015V13.614V13.6155C0.00143112 14.3475 0.263746 15.055 0.739845 15.6109C1.21594 16.1669 1.87464 16.5349 2.59766 16.6489L2.60066 16.6534C2.60066 16.6534 6.78 17.4617 10 17.4617C13.22 17.4617 17.3993 16.6534 17.3993 16.6534L17.4008 16.6519C18.1246 16.5381 18.7841 16.1698 19.2606 15.6132C19.737 15.0566 19.9992 14.3482 20 13.6155V13.614V9.00015V8.99865V4.38326C19.9989 3.65105 19.7368 2.94323 19.2606 2.38696C18.7845 1.8307 18.1256 1.46246 17.4023 1.34841L17.3993 1.3439C17.3993 1.3439 13.22 0.537109 10 0.537109ZM7.69231 5.45898L13.8462 8.99865L7.69231 12.5383V5.45898Z" fill="#F15060"/>
</svg>
